<svg xmlns="http://www.w3.org/2000/svg" enable-background="new 0 0 197 88.8" viewBox="0 0 197 88.8"><g fill="#64544f"><path d="m3.4 83.7v3.4h.8c.9 0 1.3-.4 1.3-1.7 0-1.2-.4-1.7-1.3-1.7zm0-4.5v3h.9c.9 0 1.3-.4 1.3-1.5s-.4-1.5-1.3-1.5zm1.1-1.5c1 0 1.7.2 2.1.7.5.5.7 1.1.7 2.3 0 .8-.1 1.4-.6 1.9-.2.2-.3.3-.6.4.2.1.4.2.6.4.5.5.6 1.2.6 2.2 0 1.3-.2 1.9-.7 2.5-.5.5-1.1.7-2.2.7h-2.7v-11z"/><path d="m14.4 79.2h-2.9v3.1h2.5v1.6h-2.5v3.2h2.9v1.6h-4.6v-11h4.6z"/><path d="m21.9 79.2h-1.8v9.5h-1.8v-9.5h-1.8v-1.5h5.4z"/><path d="m29.2 79.2h-1.9v9.5h-1.7v-9.5h-1.9v-1.5h5.5z"/><path d="m36.1 79.2h-2.9v3.1h2.5v1.6h-2.5v3.2h2.9v1.6h-4.7v-11h4.7z"/><path d="m40.5 79.2v3.4h1.1c.9 0 1.1-.8 1.1-1.7s-.1-1.7-1.1-1.7zm1-1.5c2 0 2.8 1 2.8 3.3 0 1.4-.3 2.3-1.3 2.9l1.6 4.9h-1.8l-1.4-4.5h-1v4.5h-1.7v-11h2.8z"/><path d="m55.9 79.2h-2.9v3.2h2.5v1.5h-2.5v4.8h-1.8v-11h4.7z"/><path d="m61.9 86.8c.3-.5.4-1.6.4-3.7 0-2 0-3.1-.4-3.7-.2-.2-.4-.4-.8-.4s-.7.2-.8.4c-.3.5-.4 1.6-.4 3.7 0 2 .1 3.1.4 3.7.2.2.4.4.8.4.4.1.7-.1.8-.4m-2.9 1.1c-.7-.9-.8-2.1-.8-4.7s.1-3.8.8-4.7c.4-.5 1.1-.9 2.1-.9s1.7.4 2.1.9c.7.9.8 2.1.8 4.7s-.1 3.8-.8 4.7c-.4.5-1.1.9-2.1.9s-1.7-.4-2.1-.9"/><path d="m70.3 86.8c.3-.5.4-1.6.4-3.7 0-2 0-3.1-.4-3.7-.2-.2-.4-.4-.8-.4s-.7.2-.8.4c-.3.5-.4 1.6-.4 3.7 0 2 .1 3.1.4 3.7.2.2.4.4.8.4.3.1.6-.1.8-.4m-3 1.1c-.7-.9-.8-2.1-.8-4.7s.1-3.8.8-4.7c.4-.5 1.1-.9 2.1-.9s1.7.4 2.1.9c.7.9.8 2.1.8 4.7s-.1 3.8-.8 4.7c-.4.5-1.1.9-2.1.9s-1.7-.4-2.1-.9"/><path d="m76.8 79.2v7.9h1c.4 0 .7-.2.9-.4.3-.5.4-1.6.4-3.5s0-3-.4-3.5c-.2-.3-.5-.4-.9-.4zm1.1-1.5c1.1 0 1.7.4 2.1.9.7.8.8 2 .8 4.6 0 2.5-.1 3.8-.8 4.6-.4.5-1.1.9-2.1.9h-2.8v-11z"/><path d="m82.3 86.8h1.9v1.9h-1.9z"/><path d="m92.7 83.7v3.4h.8c.9 0 1.3-.4 1.3-1.7 0-1.2-.4-1.7-1.3-1.7zm0-4.5v3h.9c.9 0 1.3-.4 1.3-1.5s-.4-1.5-1.3-1.5zm1.1-1.5c1 0 1.7.2 2.1.7.5.5.7 1.1.7 2.3 0 .8-.1 1.4-.6 1.9-.2.2-.3.3-.6.4.2.1.5.2.6.4.5.5.6 1.2.6 2.2 0 1.3-.2 1.9-.7 2.5-.5.5-1.1.7-2.2.7h-2.7v-11z"/><path d="m103.7 79.2h-2.9v3.1h2.5v1.6h-2.5v3.2h2.9v1.6h-4.6v-11h4.6z"/><path d="m111.2 79.2h-1.8v9.5h-1.8v-9.5h-1.8v-1.5h5.4z"/><path d="m118.5 79.2h-1.9v9.5h-1.7v-9.5h-1.9v-1.5h5.5z"/><path d="m125.4 79.2h-2.9v3.1h2.5v1.6h-2.5v3.2h2.9v1.6h-4.7v-11h4.7z"/><path d="m129.8 79.2v3.4h1.1c.9 0 1.1-.8 1.1-1.7s-.1-1.7-1.1-1.7zm1-1.5c2 0 2.8 1 2.8 3.3 0 1.4-.3 2.3-1.3 2.9l1.6 4.9h-1.8l-1.4-4.5h-1v4.5h-1.7v-11h2.8z"/><path d="m145.2 79.2h-2.9v3.2h2.5v1.5h-2.5v4.8h-1.8v-11h4.7z"/><path d="m153.3 86c0 .8-.3 1.5-.8 2s-1.2.8-2 .8c-.9 0-1.5-.3-2.1-.8-.5-.5-.8-1.2-.8-2v-8.3h1.7v8.2c0 .9.4 1.3 1.1 1.3s1.1-.4 1.1-1.3v-8.2h1.7v8.3z"/><path d="m161 79.2h-1.8v9.5h-1.8v-9.5h-1.8v-1.5h5.4z"/><path d="m169 86c0 .8-.3 1.5-.8 2s-1.2.8-2 .8c-.9 0-1.5-.3-2.1-.8-.5-.5-.8-1.2-.8-2v-8.3h1.7v8.2c0 .9.4 1.3 1.1 1.3s1.1-.4 1.1-1.3v-8.2h1.7v8.3z"/><path d="m173.6 79.2v3.4h1.1c.9 0 1.1-.8 1.1-1.7s-.1-1.7-1.1-1.7zm1.1-1.5c2 0 2.8 1 2.8 3.3 0 1.4-.3 2.3-1.3 2.9l1.6 4.9h-1.8l-1.4-4.5h-1v4.5h-1.7v-11h2.8z"/><path d="m185.1 79.2h-2.9v3.1h2.5v1.6h-2.5v3.2h2.9v1.6h-4.6v-11h4.6z"/><path d="m186.8 86.8h1.9v1.9h-1.9z"/><path d="m136.7 69.4h-14.3v-62.3h43.1v13.3h-28.8v15.7h22.4v13.1h-22.4z"/><path d="m172.7 7.1h14.3v62.3h-14.3z"/><path d="m85.9 5.9c14.5 0 25 10.1 25 24v39.4h-14.3v-39c0-7.1-4.1-11.6-10.7-11.6-6.7 0-10.9 4.4-10.9 11.6v39h-14.3v-39.4c0-13.9 10.6-24 25.2-24"/><path d="m191.2 65.6v3.8h-.6v-3.8h-1.2v-.6h3v.5zm5.2 3.8v-3.1l-1 2h-.6l-1-2v3.1h-.6v-4.4h.6l1.3 2.6 1.3-2.6h.6v4.3z"/><path d="m32.3 55.2c-1.8 1.6-4.3 2.5-7.3 2.5-6.6 0-10.7-4.4-10.7-11.6v-39h-14.3v39.4c0 13.9 10.5 24 25 24 2.6 0 5-.3 7.3-.9z"/></g><path d="m50.1 0c-8.5 3.6-14.3 14.2-14.3 24.4v44c8.5-3.6 14-11.4 14.3-21.2z" fill="#6db144"/></svg>