<svg xmlns="http://www.w3.org/2000/svg" viewBox="0 0 672 134.1"><g fill="#231f20"><path d="M217.75 39.11h-54v58.33h53.95c17.92 0 24.17-5.88 24.17-20.35V59.45c0-14.37-6.25-20.35-24.17-20.35m6.35 32.85c0 8.31-3 10.45-10.64 10.45h-31.78V53.71h31.73c7.65 0 10.64 2.15 10.64 10.08Zm45 11.48h46.67v14h-64.65V39.11h63.84v13.53h-45.92v9.33h43.49V74.1h-43.49Zm258-45h-28.74c-16.15 0-25.67 4-25.67 21.09v17.45c0 17.08 9.33 21.09 25.67 21.09h28.65c16.15 0 25.67-4 25.67-21.09V59.64c0-17.08-9.33-21.09-25.67-21.09m7.37 32.95c0 8.4-1.77 11.67-10.27 11.67h-22.81c-8.49 0-10.27-3.27-10.27-11.67v-6.35c0-7.28 1.77-11.67 11.2-11.67h20.53c9.33 0 11.2 4.48 11.2 11.67Zm120.12-32.39v14.6h-25.1v43.77h-17.92V53.71h-25.11v-14.6Zm-208.5 0H392v58.33h17.92v-15h28c5.6 0 7.37 2 7.37 8.12v7h17.96v-10c0-9.33-4.48-11.95-9.33-12.88 8.21-2 10-6.53 10-14.37v-3.73c0-10.45-3.73-17.36-17.45-17.36m0 22.59c0 4.2-1.77 6.16-6.63 6.16h-30V53.71h28c5.6 0 8.21.93 8.21 6.07Zm116.42-22.7h17.92v58.33h-17.92Zm-243.6 0h68.13v14.6h-25.17v43.77H344.4V53.71h-25.15ZM660.05 40.04h-2.42v-.84h5.88v.84h-2.43v6.53h-1.03ZM664.63 39.2h1.3l2.34 6.25 2.33-6.25h1.4v7.37h-.93v-6.16l-2.34 6.16h-.84l-2.33-6.16v6.16h-.93ZM114.62 98.37 93.81 77h15.59v-9.29s.37-44.05-44.05-44.05a45.45 45.45 0 0 0-27 9.33l6.53 6.72a34.07 34.07 0 0 1 54.9 27h-28l43.12 44.24a65.3 65.3 0 0 0 14.75-26.79Z"/><path d="M65.34 1.4a65.33 65.33 0 0 0-42.47 15.68l7.47 7.63a54.23 54.23 0 0 1 35-11.85 53.67 53.67 0 0 1 56 51.27q.07 1.61 0 3.23v9.35h9.33A65.33 65.33 0 0 0 65.34 1.39"/><path d="M37.34 58.05H22.13v9.33s0 43.68 44.05 43.68a48.44 48.44 0 0 0 27.16-10l-6.63-6.81a34.07 34.07 0 0 1-54.88-27.07h28.28l-43-44.24A65.3 65.3 0 0 0 2.15 50.49L16.9 36.77Zm63.75 51.43a54 54 0 0 1-35.75 12.79A54.13 54.13 0 0 1 10.56 68.8V58.47H.66a67 67 0 0 0-.65 9.33 65.33 65.33 0 0 0 108.73 49.84ZM124.51 0a8.31 8.31 0 1 1-8.26 8.31v-.09a8.21 8.21 0 0 1 8.21-8.21h.09m0 15.31a6.81 6.81 0 0 0 6.82-6.81v-.29a6.815 6.815 0 1 0-13.63 0 6.81 6.81 0 0 0 6.53 7.09h.29m-3.17-11.85h3.73c2.33 0 3.36.93 3.36 2.8a2.52 2.52 0 0 1-2.42 2.61h-.1l2.8 4.29h-1.59l-2.61-4.2h-1.59v4.2h-1.59Zm1.49 4.29h1.59c1.31 0 2.52 0 2.52-1.59s-1.12-1.49-2.15-1.49h-2Z"/></g></svg>