<svg xmlns="http://www.w3.org/2000/svg" xml:space="preserve" id="Layer_1" width="644.448" height="999.999" x="0" y="0" viewBox="0 0 644.448 999.999"><path d="M110.311 795.388h13.94v35.215h-12.995c0-6.301-9.182-23.746-46.984-25.207-38.595-1.473-42.484 17.471-29.421 21.514 16.812 5.186 50.057 4.072 70.685 10.738 27.162 8.789 34.85 38.014 11.074 53.578-21.338 13.967-58.691 12.318-85.191 3.145-4.839-1.67-12.609-5.934-12.225-.365v3.318H3.141v-38.539h14.334c.184 2.225-1.725 10.752 14.32 19.648 18.604 10.311 52.53 10.74 66.098 3.33 8.037-4.389 9.158-18.471-5.356-20.385-15.569-2.059-40.278-3.582-58.742-7.77-13.077-2.992-23.146-6.74-29.121-14.471-4.591-5.939-12.226-29.293 14.136-41.148 32.679-14.715 77.934-4.451 85.961 2.215 3.25 2.719 6.871 1.85 5.54-4.816M272.052 846.427c.046-26.506-18.54-41.506-43.006-41.506s-43.035 15-43.01 41.506c.017 26.5 19.189 42.15 43.01 41.496 23.815-.668 42.972-15.18 43.006-41.496m-42.386-56.717c36.289 0 74.887 17.416 74.117 57.453-.761 40.041-38.967 55.604-74.117 55.604-35.145 0-76.786-15.563-77.561-55.604-.761-40.037 42.031-57.453 77.561-57.453M623.244 813.046c-2.884 2.893-38.967 45.654-38.967 45.654v22.912c-.058 2.482.136 2.383 2.86 2.383h14.909v13.102h-68.398v-13.102s13.762.191 16.624 0c2.867-.184 3.103-.855 3.156-2.383v-23.113s-40.03-43.932-40.44-44.518c-1.357-1.938-5.058-5.301-11.61-5.459h-11.27v-13.244h69.149v13.244h-7.072c-1.514 0-3.628 3.18-.753 6.045 2.854 2.857 23.488 27.502 23.488 27.502l23.486-27.693c1.39-1.814.956-5.854-1.906-5.854h-8.603v-13.244h56.55v13.244h-13.181c-4.253 0-7.061 3.565-8.022 4.524M359.137 877.825c0 6.684 3.47 6.316 6.528 6.221h13.623v13.059H319.31v-12.584h13.264c5.382-.379 6.161-3.174 6.348-6.223v-61.889c.154-4.113.191-7.559-7.109-7.73H319.11l-.098-13.566h50.717l68.49 63.408v-42.779c0-7.275-3.603-7.275-6.647-7.643H418.83v-12.986h58.07v13.172h-13.948c-3.262 0-4.682 3.252-4.865 6.309v82.512h-19.015l-79.936-70.291v51.01ZM28.133 961.497h20.251c8.168-.186 12.979-2.209 12.979-9.51 0-6.822-4.76-9.621-11.892-9.621H28.133ZM1.668 996.864v-8.141h7.125c2.78 0 3.427-1.098 3.427-3.463l-.018-39.084c0-2.383-.7-3.625-3.478-3.625H2.021v-8.324h53.094c18.176 0 23.982 4.266 23.982 17.311s-8.147 18.338-28.549 18.338H28.133v15.41c0 2.375.65 3.463 3.428 3.463h7.3l-.124 8.115ZM113.842 985.239c0 2.387.645 3.461 3.426 3.461h7.149v8.125h-37.04v-8.15H94.5c2.77 0 3.428-1.078 3.428-3.461v-39.135c0-2.383-.658-3.936-3.428-3.936h-7.123v-8.137h37.04v8.111h-7.149c-2.781 0-3.426 1.543-3.426 3.918ZM206.133 977.526c-1.287 9.672-12.398 22.473-32.475 22.473-19.006 0-42.645-8.051-43.045-33.82-.401-25.186 22.232-35.854 40.861-35.502 11.078.213 20.988 3.986 23.537 6.537 1.613 1.605 3.697 1.721 2.912-3.031h7.307v21.516h-6.807c-.635-11.252-13.697-18.434-27.719-16.703-14.801 1.813-22.107 13.086-22.09 27.033.008 15.459 12.74 26.006 25.628 25.988 8.494-.008 21.839-2.521 24.565-14.525ZM216.346 958.026v-23.818h74.58v23.818h-7.501c.175-16.814-1.446-15.203-7.243-15.84l-14.53-.039v43.279c0 2.389.618 3.928 3.393 3.928h7.132v7.676H235.11v-7.676h7.125c2.769 0 3.413-1.539 3.413-3.928v-43.279l-14.422.049c-6.432.627-7.271-.494-7.271 15.838ZM341.07 999.653c-14.965 0-30.783-3.412-30.783-22.754v-30.77c0-2.383-.658-3.922-3.427-3.922h-7.125v-8.168h37.031v8.121h-7.142c-2.777 0-3.434 1.551-3.434 3.943v31.732c0 2.1-.86 14.582 14.879 14.582 17.588 0 19.233-7.643 19.233-14.656l.034-31.633c0-2.383-.627-3.922-3.397-3.922h-7.136v-8.168h31.436v8.121h-7.161c-1.75 0-3.363 1.797-3.278 6.537l.141 28.805c0 18.555-14.616 22.152-29.871 22.152M416.028 961.487h20.248c7.77 0 11.939-3.609 11.939-9.52 0-5.896-4.99-9.611-11.202-9.611h-20.985Zm34.212 5.08c6.246 1.51 10.672 2.807 11.014 10.424v9.047c0 1.814.315 4.441 3.301 4.441 3.201 0 2.984-3.633 2.816-7.098v-3.816h6.625v4.617c0 11.248-2.684 14.396-12.508 14.389-8.298-.01-16.264-2.576-16.264-15.098v-6.861c0-4.646-3.836-6.76-10.97-6.752l-18.227.01v15.408c0 2.373.657 3.461 3.426 3.461h7.134l.032 8.352h-37.065v-8.385h7.132c2.773 0 3.421-1.086 3.421-3.471v-39.066c0-2.375-.722-4.162-3.48-4.162h-6.713v-7.791h51.912c18.192 0 24.229 5.836 24.135 17.656-.083 10.129-8.494 13.356-15.721 14.695M508.738 988.901l33.354.139c6.432-.623 7.586-3.672 7.586-15.824h7.162v23.84l-74.658.025v-8.137h7.132c2.768 0 3.423-1.088 3.423-3.453v-39.137c0-2.379-.655-3.932-3.423-3.932h-7.132v-8.195h74.658v23.791h-7.162c0-12.137-1.154-15.463-7.586-16.1l-33.354-.025v18.824l15.521-.018c2.015 0 3.336-.744 3.336-4.014v-6.498h6.922v29.432h-6.892v-6.52c0-3.26-1.326-4.029-3.334-4.029l-15.554-.01ZM630.102 934.917h7.307v21.809h-6.807c0-3.816-4.917-15.738-24.754-16.291-20.323-.561-23.005 10.553-15.299 14.049 8.515 3.855 26.234 2.475 37.045 6.504 14.24 5.309 18.265 22.969 5.802 32.377-11.18 8.443-30.764 7.459-44.66 1.904-2.524-1.01-6.611-3.586-6.406-.223v2.02h-8.409v-23.301h7.515c-.016 1.338-.901 6.49 7.508 11.863 12.452 7.971 24.554 8.805 34.652 2.443 4.651-2.934 6.622-11.313-2.808-12.75-8.17-1.232-21.129-2.166-30.789-4.695-6.867-1.795-12.141-4.084-15.285-8.744-2.623-3.912-7.03-17.377 7.411-24.881 17.131-8.891 36.185-3.633 45.068 1.352 2.078 1.156 3.6 1.103 2.909-3.436M197.609 656.668V539.965c0-16.531-14.371-57.886-14.371-101.988 0-42.539 15.676-94.937 15.676-113.07l.01-122.621-43.84 20.453c-.019 98.788-.019 187.705.06 191.508.325 15.672 12.759 15.849 12.558 31.064-.239 17.663-12.951 26.215-12.558 36.112.21 5.336.218 97.347.166 194.937ZM210.143 650.836l41.248-19.198c-.01-29.09.008-49.668.051-53.496.667-56.216-15.293-94.51-15.425-164.164-.12-62.769 16.729-108.021 18.034-159.773.09-3.327.124-34.923.133-77.692l-43.422 20.251-.075 125.688c.243 17.61 12.442 55.248 12.442 96.995 0 41.74-13.18 101.8-12.91 116.266ZM263.691 625.916l44.543-20.729c-3.871-42.791-18.244-127.974-18.244-216.646 0-103.973 20.502-203.485 20.502-228.729v-9.568l-43.84 20.453c.008 43.583.025 75.892.067 79.204.676 49.321 11.973 90.706 11.965 144.16-.018 52.525-14.239 126.466-14.908 179.529-.042 3.814-.067 23.89-.085 52.326M40.69 276.108 2.408 293.967v453.548l38.257-17.803ZM51.448 724.692l39.128-18.21.028-453.655-39.122 18.244ZM143.766 228.02l-42.457 19.805.037 453.646 42.326-19.699c.184-101.37.313-193.588.104-195.834-1.298-14.398-11.541-9.594-11.783-24.578-.301-17.983 11.791-27.414 11.791-38.436ZM362.876 579.76c-5.772-58.154-14.157-142.621-14.157-217.969 0-76.342 8.489-173.666 14.196-236.003l-40.232 18.762c0 3.941 0 6.701-.009 8.019-.086 25.244 15.46 109.271 15.766 213.394.296 99.109-13.318 187.465-16.142 232.679ZM404.962 334.364c.419-68.692 6.23-156.437 11.646-233.628l-35.137 16.386c4.414 56.934 13.54 137.665 13.572 222.183.037 75.756-5.09 166.163-8.821 229.589l31.123-14.487c-6.1-69.585-12.8-152.576-12.383-220.043M473.738 528.165c-6.164-78.195-12.185-165.613-12.04-219.774.176-65.755 6.261-156.409 11.595-234.099l-32.165 15.001c4.809 68.584 11.722 151.587 12.081 223.338.315 64.199-5.058 150.967-8.955 229.256ZM502.32 514.858l25.609-11.916c-5.034-69.341-11.138-150.736-11.119-219.684.016-79.92 5.658-148.49 10.511-234.173l-30.12 14.048c5.728 73.906 12.41 150.852 12.351 223.008-.051 67.746-3.301 154.106-7.232 228.717M582.234 54.969c.484-10.73.634-21.316.644-31.799l-29.742 13.871c1.035 11.209 1.874 21.321 2.227 31.004 3.686 99.72 10.391 101.526 10.156 192.014-.233 90.825-3.394 147.346-7.757 228.998l21.714-10.102c-3.052-83.907-7.66-128.359-7.711-221.071-.043-76.734 6.065-104.56 10.469-202.915M619.194 234.975c.202 30.051-5.468 137.712-10.68 230.468l23.195-10.795c-3.218-94.65-7.766-189.948-8.093-222.008-.309-31.06 3.914-119.942 8.748-214.421.071-5.952.124-12.007.166-18.219l-23.705 11.061c4.982 98.308 11.079 185.543 10.369 223.914"/></svg>