<svg height="225.27997" viewBox="0 0 1280 225.27997" width="1280" xmlns="http://www.w3.org/2000/svg"><path d="m456.0129 225.27997c-46.41279 0-89.42079-13.82399-118.09279-39.60319a96.895989 96.895989 0 0 1 -32.12799-73.19039 98.329588 98.329588 0 0 1 32.12799-72.934395c26.624-24.191997 73.728-39.551995 118.09279-39.551995 49.07519 0 88.37119 12.364799 118.39999 39.603195a97.407989 97.407989 0 0 1 31.69279 72.883195 101.52959 101.52959 0 0 1 -31.69279 73.19039c-27.9808 25.9328-71.9104 39.60319-118.39999 39.60319v-29.64479c24.6016 0 47.43679-8.4992 63.38559-24.3712s23.1936-35.1232 23.1936-58.87999c0-22.681601-7.9616-43.878398-23.1936-58.879996-15.744-15.487998-39.11679-24.217597-63.38559-24.217597s-47.74399 8.652799-63.48799 24.217597c-15.1808 15.027198-23.04 36.300795-23.04 58.879996a82.35519 82.35519 0 0 0 23.04 58.87999c15.744 15.6928 39.06559 24.3712 63.48799 24.3712zm-338.89276-225.27997c-24.806392 0-52.991989 4.6591995-76.799986 15.359998-22.220799 9.932799-40.31999645 25.881597-40.31999645 52.326394a54.220794 54.220794 0 0 0 14.71999845 37.273598c6.425599 5.9392 16.793599 16.0256 43.878396 21.9648 12.108798 2.55999 37.990395 6.68159 63.769588 9.39519 25.7792 2.7136 50.7648 5.12 61.0048 7.8592 8.1408 2.0736 21.83679 4.8896 21.83679 20.2496s-14.41279 19.968-16.92159 20.9664-19.8144 8.9344-50.8928 8.9344a216.42237 216.42237 0 0 1 -60.59519-10.4192c-11.596799-4.1472-23.756797-9.6-35.097596-23.4496a40.268795 40.268795 0 0 1 -7.295999-22.2208h-28.1599983v78.84799h31.2831973v-10.67519a4.4543995 4.4543995 0 0 1 6.7584-3.84 246.42557 246.42557 0 0 0 45.772794 14.79679c16.435202 3.4304 27.059192 5.9136 47.487992 5.9136a202.62398 202.62398 0 0 0 63.6416-8.9856 111.07839 111.07839 0 0 0 37.81119-18.66239 51.814394 51.814394 0 0 0 20.24959-41.4976 58.060793 58.060793 0 0 0 -16.35839-40.80639 72.012792 72.012792 0 0 0 -20.1728-13.798402 148.60798 148.60798 0 0 0 -24.88319-8.678399c-16.2304-3.967999-52.6848-8.934399-70.1184-10.675198-18.27839-1.8944-49.99679-4.5312-62.668789-8.447999-3.839999-1.2032-11.673599-4.9152-11.673599-14.003199 0-6.476799 3.584-11.955198 10.649599-16.383998 11.238399-7.039999 33.919996-11.417599 57.574389-11.417599a166.98878 166.98878 0 0 1 66.7136 13.030399 72.857591 72.857591 0 0 1 15.87199 9.471999 47.718394 47.718394 0 0 1 15.6416 26.163197h25.2672v-68.6335922h-28.16v7.9615992c0 2.56-2.56 5.939199-7.68 3.1488-12.69759-6.6048-48.38399-20.88959802-92.13439-21.068798zm618.21433 12.595199 137.62558 124.185581-1.408-83.609586c-.1536-10.982399-2.1504-15.564798-14.0288-15.564798h-25.85599v-25.011197h117.75998v25.011197h-25.26719c-12.0832 0-12.8 3.891199-13.0048 15.564798l2.1248 159.769586h-40.32l-158.54078-141.465588v100.377588c.128 10.9312.64 16.0768 11.8784 16.0768h28.16v25.0112h-115.43039v-25.0112h27.0336c10.08639 0 9.67679-9.6256 9.67679-16.64v-117.171186c0-7.679999-1.0752-16.486398-16.89599-16.486398h-21.9136v-25.036797zm348.44153 175.283181a55.859193 55.859193 0 0 0 6.9632-.4352 8.627199 8.627199 0 0 0 5.4272-4.8128 28.006397 28.006397 0 0 0 .5376-5.4016v-39.552c0-1.3312 0-1.3568-1.6896-3.456s-72.0896-81.919986-75.2896-85.503986c-3.9936-4.351999-11.008-11.084798-21.68316-11.084798h-24.448v-25.036797h137.98396v24.985597h-16.64c-3.84 0-6.4 3.660799-3.1232 7.679999 0 0 46.4384 55.551995 46.8736 56.140795s.8192.7168 1.408.1792 47.5904-55.807995 47.9488-56.319995a4.7871994 4.7871994 0 0 0 -4.096-7.679999h-17.0752v-24.985597h113.1264v25.036797h-25.2672c-9.1648 0-12.8 1.689599-19.7888 9.471998l-76.16 86.886386a5.3759994 5.3759994 0 0 0 -.9216 3.6864v39.5264a28.159997 28.159997 0 0 0 .5632 5.4016 8.524799 8.524799 0 0 0 5.4016 4.8128 50.611194 50.611194 0 0 0 6.912.4352h25.8304v25.0368h-137.2672v-25.0368z" stroke-width="2.56"/></svg>