<svg id="Layer_1" data-name="Layer 1" xmlns="http://www.w3.org/2000/svg" viewBox="0 0 672 134.1"><title>Detroit Diesel logo - Brandlogos.net</title><path d="M276.5,364.4h-54v58.33h53.95c17.92,0,24.17-5.88,24.17-20.35V384.74c0-14.37-6.25-20.35-24.17-20.35m6.35,32.85c0,8.31-3,10.45-10.64,10.45H240.38V379h31.73c7.65,0,10.64,2.15,10.64,10.08Zm45,11.48h46.67v14H309.82V364.4h63.84v13.53H327.74v9.33h43.49v12.13H327.74Zm258-45H557.06c-16.15,0-25.67,4-25.67,21.09v17.45c0,17.08,9.33,21.09,25.67,21.09h28.65c16.15,0,25.67-4,25.67-21.09V384.93c0-17.08-9.33-21.09-25.67-21.09m7.37,32.95c0,8.4-1.77,11.67-10.27,11.67H560c-8.49,0-10.27-3.27-10.27-11.67v-6.35c0-7.28,1.77-11.67,11.2-11.67h20.53c9.33,0,11.2,4.48,11.2,11.67ZM713.2,364.4V379H688.1v43.77H670.18V379H645.07V364.4Zm-208.5,0H450.75v58.33h17.92v-15h28c5.6,0,7.37,2,7.37,8.12v7H522v-10c0-9.33-4.48-11.95-9.33-12.88h0c8.21-2,10-6.53,10-14.37v-3.73c0-10.45-3.73-17.36-17.45-17.36m0,22.59c0,4.2-1.77,6.16-6.63,6.16h-30V379h28c5.6,0,8.21.93,8.21,6.07ZM621.64,364.4h17.92v58.33H621.64Zm-243.6,0h68.13V379H421v43.77H403.15V379H378Z" transform="translate(-58.75 -325.29)" style="fill:#231f20"/><polygon points="660.05 40.04 657.63 40.04 657.63 39.2 663.51 39.2 663.51 40.04 661.08 40.04 661.08 46.57 660.05 46.57 660.05 40.04" style="fill:#231f20"/><polygon points="664.63 39.2 665.93 39.2 668.27 45.45 670.6 39.2 672 39.2 672 46.57 671.07 46.57 671.07 40.41 671.07 40.41 668.73 46.57 667.89 46.57 665.56 40.41 665.56 40.41 665.56 46.57 664.63 46.57 664.63 39.2" style="fill:#231f20"/><path d="M173.37,423.66l-20.81-21.37h15.59V393s.37-44.05-44.05-44.05a45.45,45.45,0,0,0-27,9.33l6.53,6.72A34.07,34.07,0,0,1,158.53,392h-28l43.12,44.24a65.33,65.33,0,0,0,14.75-26.79Z" transform="translate(-58.75 -325.29)" style="fill:#231f20"/><path d="M124.09,326.69a65.33,65.33,0,0,0-42.47,15.68L89.09,350a54.23,54.23,0,0,1,35-11.85,53.67,53.67,0,0,1,56,51.27q.07,1.61,0,3.23V402h9.33a65.33,65.33,0,0,0-65.33-75.32" transform="translate(-58.75 -325.29)" style="fill:#231f20"/><path d="M96.09,383.34H80.88v9.33s0,43.68,44.05,43.68a48.44,48.44,0,0,0,27.16-10l-6.63-6.81a34.07,34.07,0,0,1-54.88-27.07h28.28l-43-44.24A65.33,65.33,0,0,0,60.9,375.78l14.75-13.72Zm63.75,51.43a54,54,0,0,1-35.75,12.79,54.13,54.13,0,0,1-54.78-53.47q0-.52,0-1v-9.33H59.41a67.2,67.2,0,0,0-.65,9.33,65.33,65.33,0,0,0,108.73,49.84Z" transform="translate(-58.75 -325.29)" style="fill:#231f20"/><path d="M183.26,325.29A8.31,8.31,0,1,1,175,333.6v-.09a8.21,8.21,0,0,1,8.21-8.21h.09m0,15.31a6.81,6.81,0,0,0,6.82-6.81q0-.14,0-.29a6.81,6.81,0,1,0-13.63,0h0a6.81,6.81,0,0,0,6.53,7.09h.29m-3.17-11.85h3.73c2.33,0,3.36.93,3.36,2.8a2.52,2.52,0,0,1-2.42,2.61h-.1l2.8,4.29h-1.59l-2.61-4.2h-1.59v4.2h-1.59Zm1.49,4.29h1.59c1.31,0,2.52,0,2.52-1.59s-1.12-1.49-2.15-1.49h-2Z" transform="translate(-58.75 -325.29)" style="fill:#231f20"/></svg>